<?xml version="1.0" encoding="utf-8"?>
<svg xmlns="http://www.w3.org/2000/svg" height="512pt" version="1.1" viewBox="0 0 512 512" width="512pt">
<path d="M 0.00 0.00 L 512.00 0.00 L 512.00 512.00 L 0.00 512.00 L 0.00 0.00 Z" fill="transparent" opacity="1.00" stroke="transparent" stroke-width="0.25"/>
<path d="M 249.15 38.39 C 252.30 38.28 255.01 36.42 258.02 35.72 C 261.35 35.08 264.78 35.16 268.10 35.79 C 272.42 38.05 278.81 36.83 281.59 41.41 C 283.15 41.29 284.72 41.24 286.29 41.26 C 286.40 42.49 286.52 43.73 286.65 44.96 C 288.52 45.83 290.74 46.14 292.32 47.52 C 293.15 49.10 293.56 51.16 295.55 51.69 C 299.09 53.59 303.29 58.18 300.91 62.37 C 300.74 62.79 300.39 63.62 300.21 64.04 C 299.50 63.71 298.79 63.38 298.10 63.03 C 298.29 60.86 298.91 58.68 298.60 56.51 C 297.12 54.34 294.75 53.05 292.66 51.56 C 291.82 49.32 290.30 47.56 287.91 46.99 C 285.70 46.57 284.79 44.58 284.01 42.72 C 282.74 42.77 281.47 42.83 280.20 42.88 C 279.71 42.01 279.23 41.14 278.76 40.27 C 272.04 38.97 265.12 35.92 258.24 37.84 C 255.23 38.99 252.14 39.99 248.91 40.30 C 244.81 40.64 241.36 43.10 237.54 44.38 C 232.56 45.99 227.82 49.34 225.41 54.02 C 228.35 58.85 235.08 59.37 240.02 57.87 C 238.96 57.24 237.91 56.60 236.86 55.98 C 238.59 55.91 240.33 55.85 242.07 55.88 C 242.64 56.01 243.77 56.27 244.34 56.40 C 244.43 55.80 244.62 54.59 244.72 53.99 C 248.52 57.40 251.94 61.21 255.19 65.15 C 254.76 65.11 253.91 65.02 253.48 64.98 C 250.04 61.97 245.63 59.38 240.92 59.79 C 237.62 60.55 233.51 61.92 232.68 65.67 C 231.30 69.72 231.80 73.99 232.44 78.12 C 233.33 82.65 228.34 85.53 228.47 89.96 C 228.09 95.64 226.91 101.35 227.61 107.05 C 228.92 110.05 231.10 112.59 233.23 115.05 C 234.41 116.97 236.00 115.17 236.82 114.01 C 235.77 120.43 236.80 126.92 237.64 133.29 C 239.49 129.98 240.89 126.33 243.57 123.55 C 248.44 122.46 253.51 122.36 258.27 120.74 C 254.93 120.34 251.42 119.94 249.01 117.31 C 249.51 114.16 251.10 110.96 254.24 109.75 C 255.92 109.52 256.80 111.28 257.87 112.25 C 256.29 111.74 254.51 110.61 252.98 111.94 C 252.30 113.33 251.81 114.80 251.29 116.25 C 252.26 117.15 253.22 118.05 254.20 118.95 C 254.34 118.22 254.61 116.76 254.74 116.03 C 256.90 117.29 258.84 118.88 260.65 120.61 C 261.39 121.27 262.15 121.92 262.91 122.57 C 263.91 122.06 264.91 121.56 265.92 121.06 C 267.04 119.27 268.41 117.67 270.01 116.30 C 270.27 116.93 270.77 118.20 271.03 118.83 C 271.92 118.33 272.79 117.80 273.66 117.24 C 273.41 114.56 272.31 112.10 269.91 110.69 C 273.90 110.67 276.04 115.33 276.94 118.68 C 279.89 123.82 283.59 128.59 285.22 134.39 C 286.07 127.66 287.59 120.86 286.87 114.06 C 287.21 115.10 287.56 116.13 287.91 117.17 C 290.19 114.44 293.10 112.01 294.43 108.64 C 294.97 104.77 295.02 100.85 295.16 96.94 C 295.30 92.30 293.28 88.02 291.44 83.88 C 289.31 79.89 293.86 76.11 292.64 71.94 C 291.82 68.53 290.65 64.41 287.20 62.81 C 285.05 62.31 282.81 62.60 280.63 62.61 C 282.07 61.67 283.49 60.68 284.91 59.71 C 285.17 60.11 285.68 60.92 285.94 61.32 C 288.60 60.72 291.18 59.85 293.74 58.93 C 293.09 60.00 292.45 61.07 291.83 62.14 C 292.59 62.25 294.11 62.46 294.87 62.57 C 293.88 63.13 292.88 63.70 291.89 64.26 C 292.91 67.14 294.21 69.99 294.45 73.07 C 294.48 76.17 293.09 79.03 292.64 82.06 C 293.48 85.52 295.24 88.68 296.53 91.99 C 298.05 84.08 300.25 75.99 298.86 67.90 C 297.89 66.58 299.06 65.78 299.79 65.01 C 300.27 66.44 300.72 67.87 301.13 69.32 C 302.25 77.58 299.71 85.69 298.05 93.67 C 299.27 92.49 300.57 91.40 301.93 90.39 C 302.51 90.76 303.65 91.50 304.22 91.87 C 306.24 98.02 302.53 103.86 302.22 109.95 C 301.11 114.50 299.82 120.20 294.71 121.74 C 294.82 128.52 294.17 135.28 294.17 142.05 C 303.57 150.48 316.89 152.42 326.48 160.62 C 328.79 162.02 330.38 165.01 333.06 165.45 C 352.46 157.75 375.33 167.41 386.31 184.47 C 396.86 201.06 398.51 223.21 390.28 241.10 C 392.76 248.54 396.00 256.13 395.66 264.17 C 393.68 257.09 390.50 250.41 386.59 244.20 C 386.04 243.20 385.16 242.24 385.30 241.02 C 386.26 239.96 387.23 238.91 388.11 237.78 C 393.31 228.55 393.64 217.44 392.19 207.18 C 389.54 193.36 381.85 179.93 369.44 172.75 C 359.61 166.85 346.96 163.14 335.99 168.16 C 349.03 169.97 360.56 177.10 370.42 185.49 C 377.99 192.11 383.43 201.48 384.97 211.45 C 381.64 201.64 374.91 193.44 367.70 186.18 C 358.37 176.82 345.28 170.92 331.95 171.32 C 332.58 170.56 333.21 169.81 333.85 169.06 C 330.78 166.90 327.98 164.40 324.87 162.30 C 315.15 155.45 303.31 152.38 293.74 145.27 C 292.72 145.73 292.60 146.97 292.32 147.91 C 291.53 151.59 291.30 155.36 290.48 159.04 C 293.76 160.87 296.92 162.99 300.51 164.19 C 309.93 167.97 320.20 168.20 330.08 169.92 C 326.02 170.54 321.84 170.64 317.94 172.05 C 312.99 173.72 308.74 176.81 304.18 179.26 C 317.49 182.47 329.64 189.12 340.88 196.78 C 328.53 191.32 316.55 184.39 303.06 182.17 C 298.12 181.56 293.02 181.39 288.14 182.49 C 284.71 183.20 281.94 185.43 279.06 187.27 C 277.18 188.41 275.32 189.57 273.44 190.70 C 268.38 197.62 269.95 207.67 275.14 214.06 C 277.17 216.77 280.37 218.18 283.63 218.73 C 281.25 218.80 278.87 218.77 276.50 218.61 C 273.89 225.91 274.22 234.00 275.81 241.49 C 277.97 248.99 282.80 255.39 288.20 260.90 C 290.98 263.86 295.27 264.17 298.98 265.17 C 310.10 267.50 322.29 268.73 332.97 264.02 C 342.93 258.56 351.98 250.40 356.42 239.76 C 358.93 235.19 359.21 229.48 357.21 224.68 C 356.03 222.12 354.55 219.73 353.35 217.18 C 357.46 221.11 360.39 226.01 363.35 230.80 C 365.02 233.07 367.51 234.62 370.22 235.36 C 374.72 236.63 379.24 237.87 383.67 239.39 C 383.29 239.49 382.53 239.70 382.16 239.81 C 379.46 239.44 376.80 238.43 374.04 239.05 C 369.60 239.53 365.09 239.57 360.69 238.74 C 358.01 245.49 358.54 252.87 358.81 259.97 C 359.14 264.03 359.37 268.23 361.04 272.01 C 362.63 275.70 364.97 278.99 367.23 282.29 C 368.26 283.84 369.40 285.31 370.59 286.75 C 366.27 283.59 362.05 280.24 358.35 276.36 C 353.59 285.15 349.92 294.63 343.82 302.68 C 341.18 306.97 336.40 309.85 335.07 314.91 C 333.60 319.92 329.80 323.73 327.71 328.42 C 328.30 337.43 332.50 345.94 332.54 355.06 C 332.74 360.69 331.26 366.33 328.32 371.13 C 326.61 373.23 328.38 375.70 328.62 377.99 C 330.14 387.01 333.07 395.79 333.79 404.95 C 334.23 406.63 335.55 407.92 336.31 409.48 C 340.05 416.78 341.38 424.98 342.98 432.95 C 343.74 437.30 344.63 441.66 344.57 446.11 C 342.47 438.80 340.07 431.59 337.79 424.34 C 338.01 424.13 338.46 423.69 338.68 423.47 C 338.40 423.43 337.84 423.34 337.57 423.29 C 335.08 418.37 334.52 412.16 330.09 408.42 C 327.64 409.42 325.32 410.70 323.19 412.26 C 318.99 415.13 314.81 418.06 311.25 421.72 C 309.63 423.06 308.19 424.60 306.79 426.16 C 306.00 426.45 305.33 426.90 304.76 427.51 C 298.76 434.06 292.77 440.99 289.73 449.48 C 287.51 455.19 286.22 461.19 284.37 467.02 C 282.02 473.80 276.05 479.28 269.07 481.01 C 266.04 481.97 262.93 481.33 260.21 479.85 L 259.07 480.17 C 253.39 480.36 247.66 477.02 245.14 471.90 C 243.42 468.45 242.77 464.62 241.81 460.92 C 239.07 448.16 230.48 437.64 221.31 428.80 C 221.54 431.93 222.24 435.01 223.13 438.02 C 223.51 439.29 223.59 440.58 223.37 441.90 C 221.28 451.95 218.40 461.92 217.49 472.16 C 216.95 470.87 216.59 469.51 216.76 468.11 C 217.24 456.48 219.93 445.06 219.77 433.40 C 219.80 431.23 221.04 428.49 219.10 426.83 C 213.21 421.60 206.60 417.24 199.78 413.33 C 196.06 411.24 191.69 409.26 187.36 410.50 C 185.07 411.95 183.90 414.56 182.61 416.84 C 180.43 421.23 177.98 425.53 176.57 430.26 C 176.13 431.55 175.55 432.79 174.99 434.04 C 174.77 424.80 178.65 415.79 183.43 408.02 C 185.15 395.77 187.88 383.68 191.68 371.91 C 184.89 364.05 185.21 352.67 187.19 343.07 C 188.07 337.69 190.52 332.32 189.40 326.81 C 186.89 324.11 186.00 320.02 182.50 318.30 C 169.54 309.85 160.64 296.66 153.83 283.04 C 153.30 281.82 152.75 280.59 152.23 279.37 C 151.89 279.43 151.20 279.54 150.85 279.59 C 148.14 281.97 145.21 284.08 142.22 286.10 C 143.67 284.27 145.24 282.55 146.74 280.78 C 156.55 269.53 162.55 254.78 162.76 239.82 C 155.31 240.04 147.88 238.38 140.46 239.25 C 139.26 239.38 138.07 239.50 136.87 239.61 C 142.33 237.39 148.19 236.61 153.98 235.76 C 158.46 235.23 162.51 233.05 166.16 230.52 C 171.02 226.31 175.35 221.53 180.11 217.22 C 178.67 219.07 177.29 220.98 176.05 222.98 C 180.66 222.17 185.24 221.03 189.94 220.81 C 185.74 222.31 181.50 223.72 177.42 225.54 C 174.39 226.55 171.77 228.76 170.96 231.95 C 169.65 237.63 171.95 243.87 176.54 247.46 C 189.06 258.00 204.51 265.90 221.02 267.14 C 230.65 267.33 240.36 266.42 249.68 263.93 C 254.24 263.26 257.71 260.07 260.68 256.80 C 265.03 251.80 269.24 245.95 269.55 239.08 C 270.17 232.40 268.55 225.45 264.81 219.86 C 262.18 220.18 259.53 220.69 256.90 220.07 C 259.51 219.25 262.82 219.11 264.39 216.51 C 267.76 211.07 266.05 204.09 263.21 198.81 C 259.25 191.71 251.83 187.79 244.77 184.40 C 237.09 180.75 228.05 180.95 220.07 183.56 C 209.47 186.96 200.02 192.99 190.12 197.94 C 199.34 190.79 209.33 184.55 220.10 180.02 C 210.43 174.02 199.37 169.60 187.80 170.11 C 194.87 168.27 202.33 168.19 209.18 165.43 C 215.51 163.75 220.42 159.27 226.06 156.31 C 225.14 151.69 224.40 147.04 224.29 142.32 C 215.59 147.23 206.79 151.99 197.49 155.69 C 191.02 158.19 185.06 162.28 181.15 168.08 C 181.48 168.96 182.11 169.60 183.02 170.01 C 183.62 170.40 184.23 170.78 184.85 171.16 C 173.94 171.61 162.62 174.27 154.08 181.42 C 150.05 183.85 146.85 187.34 143.78 190.86 C 138.07 197.27 132.45 204.44 130.43 212.95 C 130.59 211.62 130.72 210.29 130.84 208.96 C 133.78 200.43 138.10 192.02 144.89 185.91 C 154.42 177.63 165.71 171.13 178.08 168.32 C 167.46 164.41 155.28 164.88 145.20 170.13 C 140.09 172.33 135.10 175.07 131.09 178.97 C 124.05 185.21 119.91 194.09 117.67 203.09 C 114.62 214.96 117.36 228.24 125.36 237.62 C 126.17 239.13 128.95 240.53 127.35 242.34 C 122.47 249.78 117.88 257.52 114.79 265.91 C 115.30 258.22 117.18 250.61 120.32 243.58 C 120.93 242.38 121.14 240.93 120.22 239.82 C 114.23 229.69 113.77 217.42 114.82 205.99 C 115.75 197.63 119.06 189.73 123.74 182.80 C 135.59 165.82 159.03 158.04 178.52 165.30 C 180.40 163.63 181.46 161.13 183.64 159.72 C 189.37 154.56 197.09 152.91 203.93 149.76 C 210.52 147.18 216.49 143.31 222.40 139.46 C 223.91 138.46 225.74 137.11 225.49 135.04 C 225.47 129.94 225.62 124.84 225.59 119.75 C 224.04 118.54 221.59 118.45 220.72 116.38 C 219.22 112.78 217.68 109.03 217.70 105.06 C 217.50 101.00 215.83 97.12 216.10 93.01 C 216.24 91.31 216.01 89.00 217.99 88.29 C 220.32 87.64 221.80 89.87 223.49 90.98 C 222.08 81.81 220.44 72.47 221.85 63.18 C 222.27 61.04 224.13 59.50 224.60 57.44 C 223.80 56.10 221.09 54.52 222.92 52.90 C 227.20 48.49 231.96 44.01 238.09 42.44 C 239.69 42.26 240.04 40.73 240.54 39.48 C 243.34 38.67 246.26 38.53 249.15 38.39 Z" fill="#000001" opacity="1.00" stroke="#000001" stroke-width="0.25"/>
<path d="M 258.24 37.84 C 265.12 35.92 272.04 38.97 278.76 40.27 C 279.23 41.14 279.71 42.01 280.20 42.88 C 281.47 42.83 282.74 42.77 284.01 42.72 C 284.79 44.58 285.70 46.57 287.91 46.99 C 290.30 47.56 291.82 49.32 292.66 51.56 C 294.75 53.05 297.12 54.34 298.60 56.51 C 298.91 58.68 298.29 60.86 298.10 63.03 C 298.79 63.38 299.50 63.71 300.21 64.04 C 300.39 63.62 300.74 62.79 300.91 62.37 C 300.17 64.66 300.81 67.03 301.13 69.32 C 300.72 67.87 300.27 66.44 299.79 65.01 C 299.06 65.78 297.89 66.58 298.86 67.90 C 300.25 75.99 298.05 84.08 296.53 91.99 C 295.24 88.68 293.48 85.52 292.64 82.06 C 293.09 79.03 294.48 76.17 294.45 73.07 C 294.21 69.99 292.91 67.14 291.89 64.26 C 292.88 63.70 293.88 63.13 294.87 62.57 C 294.11 62.46 292.59 62.25 291.83 62.14 C 292.45 61.07 293.09 60.00 293.74 58.93 C 291.18 59.85 288.60 60.72 285.94 61.32 C 285.68 60.92 285.17 60.11 284.91 59.71 C 284.53 58.97 284.16 58.22 283.80 57.47 C 283.14 57.43 281.82 57.34 281.16 57.29 C 281.43 54.86 281.53 52.37 280.86 49.98 C 279.77 53.77 278.00 57.45 274.95 60.05 C 274.40 60.97 272.11 60.66 272.85 59.24 C 273.00 57.44 273.29 55.65 273.54 53.86 C 271.74 56.46 270.21 59.29 267.83 61.43 C 268.22 57.55 268.87 53.64 268.36 49.73 C 267.24 51.97 267.31 54.55 266.80 56.95 C 266.02 61.41 263.89 65.47 261.78 69.42 C 262.35 69.38 263.49 69.29 264.07 69.25 C 263.78 69.37 263.19 69.61 262.90 69.73 C 261.38 69.61 259.87 69.42 258.36 69.26 C 257.72 68.70 257.10 68.14 256.47 67.58 C 255.23 67.18 254.02 66.76 252.81 66.30 L 253.48 64.98 C 253.91 65.02 254.76 65.11 255.19 65.15 C 251.94 61.21 248.52 57.40 244.72 53.99 C 244.62 54.59 244.43 55.80 244.34 56.40 C 243.77 56.27 242.64 56.01 242.07 55.88 C 239.81 55.05 236.68 55.08 235.42 52.72 C 234.45 50.96 236.97 50.52 238.14 50.15 C 243.30 49.14 246.23 54.71 250.66 56.32 C 253.72 59.14 255.35 63.00 257.35 66.56 C 258.05 68.28 259.91 68.56 261.56 68.59 C 260.47 62.93 258.28 57.50 255.04 52.72 C 254.41 51.88 253.76 51.06 253.11 50.24 C 252.37 50.73 251.63 51.22 250.89 51.71 C 248.45 49.40 245.84 47.23 243.85 44.49 C 248.26 43.07 252.87 42.50 257.33 41.30 C 257.78 40.20 258.09 39.04 258.24 37.84 Z" fill="#515061" opacity="1.00" stroke="#515061" stroke-width="0.25"/>
<path d="M 248.91 40.30 C 252.14 39.99 255.23 38.99 258.24 37.84 C 258.09 39.04 257.78 40.20 257.33 41.30 C 252.87 42.50 248.26 43.07 243.85 44.49 C 245.84 47.23 248.45 49.40 250.89 51.71 C 251.63 51.22 252.37 50.73 253.11 50.24 C 253.76 51.06 254.41 51.88 255.04 52.72 C 254.54 52.61 253.54 52.37 253.03 52.26 C 253.57 54.03 254.12 55.79 254.66 57.56 C 253.31 57.17 251.98 56.75 250.66 56.32 C 246.23 54.71 243.30 49.14 238.14 50.15 C 236.97 50.52 234.45 50.96 235.42 52.72 C 236.68 55.08 239.81 55.05 242.07 55.88 C 240.33 55.85 238.59 55.91 236.86 55.98 C 237.91 56.60 238.96 57.24 240.02 57.87 C 235.08 59.37 228.35 58.85 225.41 54.02 C 227.82 49.34 232.56 45.99 237.54 44.38 C 241.36 43.10 244.81 40.64 248.91 40.30 Z" fill="#3d3b53" opacity="1.00" stroke="#3d3b53" stroke-width="0.25"/>
<path d="M 266.80 56.95 C 267.31 54.55 267.24 51.97 268.36 49.73 C 268.87 53.64 268.22 57.55 267.83 61.43 C 270.21 59.29 271.74 56.46 273.54 53.86 C 273.29 55.65 273.00 57.44 272.85 59.24 C 272.11 60.66 274.40 60.97 274.95 60.05 C 278.00 57.45 279.77 53.77 280.86 49.98 C 281.53 52.37 281.43 54.86 281.16 57.29 C 281.82 57.34 283.14 57.43 283.80 57.47 C 284.16 58.22 284.53 58.97 284.91 59.71 C 283.49 60.68 282.07 61.67 280.63 62.61 C 274.66 63.62 269.54 66.90 264.07 69.25 C 263.49 69.29 262.35 69.38 261.78 69.42 C 263.89 65.47 266.02 61.41 266.80 56.95 Z" fill="#06070a" opacity="1.00" stroke="#06070a" stroke-width="0.25"/>
<path d="M 253.03 52.26 C 253.54 52.37 254.54 52.61 255.04 52.72 C 258.28 57.50 260.47 62.93 261.56 68.59 C 259.91 68.56 258.05 68.28 257.35 66.56 C 255.35 63.00 253.72 59.14 250.66 56.32 C 251.98 56.75 253.31 57.17 254.66 57.56 C 254.12 55.79 253.57 54.03 253.03 52.26 Z" fill="#04050c" opacity="1.00" stroke="#04050c" stroke-width="0.25"/>
<path d="M 263.21 54.42 C 264.70 55.45 264.61 59.41 263.35 60.57 C 262.61 58.69 262.43 56.30 263.21 54.42 Z" fill="#727181" opacity="1.00" stroke="#727181" stroke-width="0.25"/>
<path d="M 223.62 65.91 C 223.99 62.57 225.57 59.53 227.93 57.15 C 229.79 58.17 231.60 59.30 233.31 60.58 C 229.78 65.51 228.75 72.20 230.41 78.02 C 231.27 80.63 229.19 82.80 228.20 85.04 C 226.51 87.78 227.18 91.27 225.57 94.04 C 225.18 84.65 221.58 75.34 223.62 65.91 Z" fill="#3e3c51" opacity="1.00" stroke="#3e3c51" stroke-width="0.25"/>
<path d="M 232.68 65.67 C 233.51 61.92 237.62 60.55 240.92 59.79 C 245.63 59.38 250.04 61.97 253.48 64.98 L 252.81 66.30 C 249.34 64.93 245.43 63.06 241.71 64.73 C 239.53 65.42 239.44 68.06 239.69 69.95 C 240.22 73.27 240.91 76.63 242.26 79.72 C 243.90 81.13 245.80 82.19 247.52 83.50 C 247.10 83.49 246.25 83.49 245.82 83.48 C 244.54 83.00 243.27 82.50 242.01 81.99 C 241.17 83.67 240.32 85.35 239.41 86.99 C 236.24 88.27 233.88 90.80 231.49 93.14 C 232.56 93.95 233.64 94.75 234.73 95.54 C 236.52 93.91 238.83 94.48 240.96 94.86 C 239.47 95.89 237.94 96.86 236.37 97.78 C 236.42 98.22 236.53 99.10 236.58 99.54 C 237.32 99.11 238.06 98.67 238.80 98.24 C 239.94 99.15 241.10 100.05 242.26 100.95 C 241.77 99.31 238.79 96.66 242.11 96.38 C 244.45 98.66 247.82 99.05 250.89 98.32 C 250.74 98.84 250.44 99.86 250.28 100.37 C 247.76 99.16 244.96 99.29 242.25 99.40 C 242.31 99.89 242.42 100.86 242.48 101.34 C 246.27 101.50 250.02 101.00 253.74 100.33 L 253.98 101.16 C 253.46 101.99 252.43 103.65 251.91 104.49 C 255.25 103.49 258.29 101.79 261.33 100.14 C 260.89 99.50 260.47 98.87 260.05 98.23 C 261.35 98.08 262.65 97.93 263.96 97.77 L 263.70 97.12 L 264.69 97.18 L 265.01 96.73 C 265.69 95.80 266.35 94.86 266.99 93.90 C 266.42 95.78 267.42 99.11 264.40 99.01 C 264.26 99.19 264.00 99.56 263.86 99.74 C 262.86 100.16 261.87 100.57 260.87 100.98 C 260.25 107.50 260.14 114.07 260.65 120.61 C 258.84 118.88 256.90 117.29 254.74 116.03 C 254.61 116.76 254.34 118.22 254.20 118.95 C 253.22 118.05 252.26 117.15 251.29 116.25 C 251.81 114.80 252.30 113.33 252.98 111.94 C 254.51 110.61 256.29 111.74 257.87 112.25 C 256.80 111.28 255.92 109.52 254.24 109.75 C 251.10 110.96 249.51 114.16 249.01 117.31 C 251.42 119.94 254.93 120.34 258.27 120.74 C 253.51 122.36 248.44 122.46 243.57 123.55 C 246.08 118.20 249.02 112.68 248.68 106.57 C 244.48 106.18 240.41 104.93 236.21 104.64 C 234.48 102.90 232.90 101.03 231.27 99.20 C 231.60 100.24 231.94 101.29 232.27 102.35 C 232.40 104.65 232.16 107.01 232.70 109.28 C 233.51 111.26 235.38 112.51 236.82 114.01 C 236.00 115.17 234.41 116.97 233.23 115.05 C 231.10 112.59 228.92 110.05 227.61 107.05 C 226.91 101.35 228.09 95.64 228.47 89.96 C 228.34 85.53 233.33 82.65 232.44 78.12 C 231.80 73.99 231.30 69.72 232.68 65.67 Z" fill="#c2c3c3" opacity="1.00" stroke="#c2c3c3" stroke-width="0.25"/>
<path d="M 264.07 69.25 C 269.54 66.90 274.66 63.62 280.63 62.61 C 282.81 62.60 285.05 62.31 287.20 62.81 C 290.65 64.41 291.82 68.53 292.64 71.94 C 293.86 76.11 289.31 79.89 291.44 83.88 C 293.28 88.02 295.30 92.30 295.16 96.94 C 295.02 100.85 294.97 104.77 294.43 108.64 C 293.10 112.01 290.19 114.44 287.91 117.17 C 287.56 116.13 287.21 115.10 286.87 114.06 C 287.59 120.86 286.07 127.66 285.22 134.39 C 283.59 128.59 279.89 123.82 276.94 118.68 C 276.04 115.33 273.90 110.67 269.91 110.69 C 272.31 112.10 273.41 114.56 273.66 117.24 C 272.79 117.80 271.92 118.33 271.03 118.83 C 270.77 118.20 270.27 116.93 270.01 116.30 C 268.41 117.67 267.04 119.27 265.92 121.06 C 264.91 121.56 263.91 122.06 262.91 122.57 C 262.15 121.92 261.39 121.27 260.65 120.61 C 260.14 114.07 260.25 107.50 260.87 100.98 C 261.87 100.57 262.86 100.16 263.86 99.74 C 264.31 100.01 265.20 100.53 265.65 100.79 C 266.65 104.84 264.90 110.08 268.34 113.14 C 267.30 109.25 266.51 105.28 266.62 101.24 C 269.72 102.93 272.76 104.84 276.18 105.81 C 274.90 104.67 273.44 103.77 271.97 102.92 L 271.54 101.57 C 272.93 101.69 274.32 101.81 275.72 101.96 C 279.11 102.67 282.79 102.55 285.18 99.72 C 285.81 99.94 287.07 100.39 287.70 100.62 C 287.20 98.88 285.68 97.78 284.45 96.57 C 286.23 95.67 287.88 95.72 289.06 97.48 C 290.03 96.80 292.00 96.79 291.76 95.18 C 290.53 92.67 288.64 90.57 287.00 88.33 C 283.27 90.19 280.08 93.11 275.99 94.20 C 273.20 94.92 270.60 96.16 268.28 97.85 C 267.96 96.26 267.65 94.66 267.35 93.06 C 267.26 93.27 267.08 93.69 266.99 93.90 C 266.35 94.86 265.69 95.80 265.01 96.73 C 264.66 94.44 264.34 92.14 264.02 89.85 C 262.97 92.15 262.28 94.81 263.70 97.12 L 263.96 97.77 C 262.65 97.93 261.35 98.08 260.05 98.23 C 259.66 95.62 259.65 92.98 259.52 90.36 C 256.68 86.35 251.44 85.96 247.52 83.50 C 245.80 82.19 243.90 81.13 242.26 79.72 C 240.91 76.63 240.22 73.27 239.69 69.95 C 239.44 68.06 239.53 65.42 241.71 64.73 C 245.43 63.06 249.34 64.93 252.81 66.30 C 254.02 66.76 255.23 67.18 256.47 67.58 C 257.10 68.14 257.72 68.70 258.36 69.26 C 259.87 69.42 261.38 69.61 262.90 69.73 C 263.19 69.61 263.78 69.37 264.07 69.25 Z" fill="#fefefe" opacity="1.00" stroke="#fefefe" stroke-width="0.25"/>
<path d="M 239.44 81.06 C 242.68 80.85 238.94 83.92 237.50 83.83 C 234.79 84.04 238.32 81.07 239.44 81.06 Z" fill="#828382" opacity="1.00" stroke="#828382" stroke-width="0.25"/>
<path d="M 252.89 81.39 C 255.95 81.41 259.56 80.95 261.95 83.32 C 258.84 83.34 255.66 82.86 252.89 81.39 Z" fill="#686868" opacity="1.00" stroke="#686868" stroke-width="0.25"/>
<path d="M 242.01 81.99 C 243.27 82.50 244.54 83.00 245.82 83.48 C 249.48 85.55 253.60 86.71 257.17 88.89 C 260.00 90.98 258.52 94.66 257.38 97.25 C 254.56 95.31 251.15 94.59 248.22 92.87 C 245.15 91.12 242.21 89.14 239.41 86.99 C 240.32 85.35 241.17 83.67 242.01 81.99 Z" fill="#ffffff" opacity="1.00" stroke="#ffffff" stroke-width="0.25"/>
<path d="M 245.82 83.48 C 246.25 83.49 247.10 83.49 247.52 83.50 C 251.44 85.96 256.68 86.35 259.52 90.36 C 259.65 92.98 259.66 95.62 260.05 98.23 C 260.47 98.87 260.89 99.50 261.33 100.14 C 258.29 101.79 255.25 103.49 251.91 104.49 C 252.43 103.65 253.46 101.99 253.98 101.16 L 253.74 100.33 C 250.02 101.00 246.27 101.50 242.48 101.34 C 242.42 100.86 242.31 99.89 242.25 99.40 C 244.96 99.29 247.76 99.16 250.28 100.37 C 250.44 99.86 250.74 98.84 250.89 98.32 C 247.82 99.05 244.45 98.66 242.11 96.38 C 238.79 96.66 241.77 99.31 242.26 100.95 C 241.10 100.05 239.94 99.15 238.80 98.24 C 238.06 98.67 237.32 99.11 236.58 99.54 C 236.53 99.10 236.42 98.22 236.37 97.78 C 237.94 96.86 239.47 95.89 240.96 94.86 C 238.83 94.48 236.52 93.91 234.73 95.54 C 233.64 94.75 232.56 93.95 231.49 93.14 C 233.88 90.80 236.24 88.27 239.41 86.99 C 242.21 89.14 245.15 91.12 248.22 92.87 C 251.15 94.59 254.56 95.31 257.38 97.25 C 258.52 94.66 260.00 90.98 257.17 88.89 C 253.60 86.71 249.48 85.55 245.82 83.48 Z" fill="#000102" opacity="1.00" stroke="#000102" stroke-width="0.25"/>
<path d="M 286.11 83.42 C 287.63 82.92 289.20 85.12 288.72 86.50 C 287.33 86.86 285.35 84.78 286.11 83.42 Z" fill="#bababa" opacity="1.00" stroke="#bababa" stroke-width="0.25"/>
<path d="M 269.14 87.28 C 272.47 86.33 275.63 84.75 279.09 84.34 C 274.97 86.70 270.39 88.01 266.01 89.75 C 266.93 88.79 267.74 87.54 269.14 87.28 Z" fill="#242424" opacity="1.00" stroke="#242424" stroke-width="0.25"/>
<path d="M 275.99 94.20 C 280.08 93.11 283.27 90.19 287.00 88.33 C 288.64 90.57 290.53 92.67 291.76 95.18 C 292.00 96.79 290.03 96.80 289.06 97.48 C 287.88 95.72 286.23 95.67 284.45 96.57 C 285.68 97.78 287.20 98.88 287.70 100.62 C 287.07 100.39 285.81 99.94 285.18 99.72 C 282.79 102.55 279.11 102.67 275.72 101.96 C 275.36 100.84 276.07 98.67 274.21 98.85 C 272.86 99.86 271.65 101.03 270.40 102.16 C 270.79 102.35 271.57 102.73 271.97 102.92 C 273.44 103.77 274.90 104.67 276.18 105.81 C 272.76 104.84 269.72 102.93 266.62 101.24 C 266.51 105.28 267.30 109.25 268.34 113.14 C 264.90 110.08 266.65 104.84 265.65 100.79 C 265.20 100.53 264.31 100.01 263.86 99.74 C 264.00 99.56 264.26 99.19 264.40 99.01 C 267.42 99.11 266.42 95.78 266.99 93.90 C 267.08 93.69 267.26 93.27 267.35 93.06 C 267.65 94.66 267.96 96.26 268.28 97.85 C 270.60 96.16 273.20 94.92 275.99 94.20 Z" fill="#010103" opacity="1.00" stroke="#010103" stroke-width="0.25"/>
<path d="M 263.70 97.12 C 262.28 94.81 262.97 92.15 264.02 89.85 C 264.34 92.14 264.66 94.44 265.01 96.73 L 264.69 97.18 L 263.70 97.12 Z" fill="#06070a" opacity="1.00" stroke="#06070a" stroke-width="0.25"/>
<path d="M 218.43 90.19 C 220.25 90.51 221.20 92.18 222.35 93.42 C 223.53 96.11 225.18 98.85 225.14 101.88 C 223.31 99.58 222.14 96.86 220.44 94.49 C 219.57 93.14 217.74 92.14 218.43 90.19 Z" fill="#fefefe" opacity="1.00" stroke="#fefefe" stroke-width="0.25"/>
<path d="M 297.31 100.86 C 298.22 97.69 299.22 94.23 302.01 92.17 C 303.39 95.09 302.62 98.37 302.46 101.46 L 301.34 101.34 C 302.40 103.78 301.20 106.41 301.20 108.93 C 300.87 108.93 300.21 108.92 299.87 108.92 C 300.05 106.19 299.01 103.01 300.17 100.53 C 300.66 100.55 301.64 100.58 302.13 100.60 C 301.90 99.03 301.66 97.47 301.41 95.91 C 299.98 97.55 299.88 100.60 297.31 100.86 Z" fill="#ffffff" opacity="1.00" stroke="#ffffff" stroke-width="0.25"/>
<path d="M 219.04 99.79 C 217.84 99.07 217.79 95.41 218.98 94.81 C 219.64 96.32 219.83 98.30 219.04 99.79 Z" fill="#9d9d9d" opacity="1.00" stroke="#9d9d9d" stroke-width="0.25"/>
<path d="M 279.76 99.39 C 281.06 98.64 282.42 97.92 283.98 98.13 C 282.87 100.85 278.86 101.50 276.81 99.59 C 277.55 99.54 279.02 99.44 279.76 99.39 Z" fill="#fdfdff" opacity="1.00" stroke="#fdfdff" stroke-width="0.25"/>
<path d="M 231.27 99.20 C 232.90 101.03 234.48 102.90 236.21 104.64 C 238.26 106.86 241.19 107.58 244.05 108.14 C 239.14 109.70 235.08 105.86 232.27 102.35 C 231.94 101.29 231.60 100.24 231.27 99.20 Z" fill="#242424" opacity="1.00" stroke="#242424" stroke-width="0.25"/>
<path d="M 270.40 102.16 C 271.65 101.03 272.86 99.86 274.21 98.85 C 276.07 98.67 275.36 100.84 275.72 101.96 C 274.32 101.81 272.93 101.69 271.54 101.57 L 271.97 102.92 C 271.57 102.73 270.79 102.35 270.40 102.16 Z" fill="#8a8b8c" opacity="1.00" stroke="#8a8b8c" stroke-width="0.25"/>
<path d="M 220.62 99.35 L 222.47 99.30 C 222.40 103.10 217.87 108.48 222.54 111.01 C 222.03 109.14 223.61 108.02 224.48 106.69 L 222.97 106.32 C 223.53 105.35 224.16 104.35 225.30 104.00 C 225.08 105.75 225.46 107.31 226.44 108.69 C 225.89 108.74 224.77 108.85 224.21 108.91 C 226.11 111.24 225.63 114.32 225.79 117.09 C 222.35 117.12 221.13 113.56 220.07 110.92 C 218.99 107.29 218.81 103.48 218.23 99.76 C 218.84 100.02 220.06 100.55 220.67 100.81 L 220.62 99.35 Z" fill="#c4c4c4" opacity="1.00" stroke="#c4c4c4" stroke-width="0.25"/>
<path d="M 282.11 107.98 C 285.50 106.98 288.54 105.11 290.62 102.22 C 290.41 106.45 286.06 109.12 282.11 107.98 Z" fill="#06070a" opacity="1.00" stroke="#06070a" stroke-width="0.25"/>
<path d="M 232.27 102.35 C 235.08 105.86 239.14 109.70 244.05 108.14 C 241.19 107.58 238.26 106.86 236.21 104.64 C 240.41 104.93 244.48 106.18 248.68 106.57 C 249.02 112.68 246.08 118.20 243.57 123.55 C 240.89 126.33 239.49 129.98 237.64 133.29 C 236.80 126.92 235.77 120.43 236.82 114.01 C 235.38 112.51 233.51 111.26 232.70 109.28 C 232.16 107.01 232.40 104.65 232.27 102.35 Z" fill="#feffff" opacity="1.00" stroke="#feffff" stroke-width="0.25"/>
<path d="M 279.14 106.26 C 280.76 104.46 283.26 103.80 285.59 103.48 C 284.52 106.12 281.54 106.17 279.14 106.26 Z" fill="#b6b8b7" opacity="1.00" stroke="#b6b8b7" stroke-width="0.25"/>
<path d="M 296.85 104.06 C 298.65 106.81 298.84 110.03 297.82 113.13 L 299.07 110.50 C 299.56 110.99 300.05 111.48 300.55 111.97 C 299.09 114.55 297.89 117.54 295.20 119.08 C 295.34 114.04 296.65 109.11 296.85 104.06 Z" fill="#ffffff" opacity="1.00" stroke="#ffffff" stroke-width="0.25"/>
<path d="M 275.40 110.11 C 276.78 109.61 277.29 110.07 276.93 111.50 C 275.55 112.00 275.05 111.53 275.40 110.11 Z" fill="#cfd1d0" opacity="1.00" stroke="#cfd1d0" stroke-width="0.25"/>
<path d="M 227.72 120.97 C 228.01 117.98 227.20 114.78 228.25 111.91 C 228.27 112.41 228.30 113.41 228.32 113.91 C 228.35 120.90 228.24 127.91 228.36 134.91 C 228.30 138.21 230.02 141.10 231.31 144.02 C 231.28 144.37 231.23 145.06 231.20 145.41 C 226.21 138.22 227.95 129.16 227.72 120.97 Z" fill="#c3c4c5" opacity="1.00" stroke="#c3c4c5" stroke-width="0.25"/>
<path d="M 228.32 113.91 C 231.38 114.32 232.72 117.53 233.65 120.09 C 235.04 126.66 234.71 133.64 237.71 139.81 C 238.61 137.07 239.25 134.26 240.12 131.51 L 240.39 131.46 C 243.20 131.08 245.46 129.20 247.90 127.91 C 247.57 128.76 247.24 129.62 246.91 130.47 C 246.27 130.74 244.99 131.27 244.35 131.54 L 243.33 132.38 C 242.42 137.22 243.20 142.38 245.73 146.64 C 245.53 151.77 246.87 156.82 246.57 161.95 C 246.70 164.24 244.01 164.06 243.64 162.03 C 242.04 158.91 239.32 156.64 237.14 153.96 C 237.16 154.71 237.20 156.20 237.22 156.95 C 236.30 155.61 235.27 154.37 234.13 153.23 C 234.80 153.27 236.13 153.35 236.80 153.39 C 235.51 150.46 232.98 148.42 231.16 145.85 L 231.20 145.41 C 231.23 145.06 231.28 144.37 231.31 144.02 C 230.02 141.10 228.30 138.21 228.36 134.91 C 228.24 127.91 228.35 120.90 228.32 113.91 Z" fill="#403f54" opacity="1.00" stroke="#403f54" stroke-width="0.25"/>
<path d="M 288.31 122.24 C 288.80 118.97 290.68 115.88 293.47 114.06 C 292.64 124.32 293.14 134.72 291.25 144.87 C 289.60 149.51 285.84 153.02 282.41 156.43 C 280.48 158.40 280.97 162.12 278.11 163.28 C 275.05 164.73 271.34 166.90 268.12 164.77 C 263.85 166.47 259.11 166.32 254.90 168.19 C 251.58 167.40 248.16 166.34 246.49 163.08 L 246.57 161.95 C 246.87 156.82 245.53 151.77 245.73 146.64 C 252.13 149.34 257.02 142.96 262.94 142.02 C 266.47 143.01 268.58 146.65 272.13 147.58 C 274.74 147.74 278.68 147.81 279.68 144.77 C 281.00 140.82 280.82 136.56 280.23 132.49 C 275.03 133.73 270.20 130.73 265.12 130.10 C 263.92 129.31 262.72 128.54 261.49 127.80 C 261.28 128.48 260.85 129.83 260.64 130.51 C 254.86 131.03 249.16 132.38 243.33 132.38 L 244.35 131.54 C 244.99 131.27 246.27 130.74 246.91 130.47 C 247.24 129.62 247.57 128.76 247.90 127.91 C 245.46 129.20 243.20 131.08 240.39 131.46 C 241.68 129.23 242.68 126.47 244.97 125.09 C 249.53 123.83 254.30 123.52 258.93 122.56 C 261.14 123.84 263.88 124.17 266.09 122.70 C 270.13 124.23 274.34 125.25 278.46 126.51 C 281.27 127.37 282.20 130.47 283.10 132.94 C 284.31 136.21 284.21 139.74 284.44 143.17 C 287.17 136.54 287.22 129.24 288.31 122.24 Z" fill="#504f61" opacity="1.00" stroke="#504f61" stroke-width="0.25"/>
<path d="M 270.61 119.78 C 272.50 119.85 274.38 119.57 275.98 118.48 C 277.27 120.47 278.78 122.45 279.05 124.89 C 275.51 123.19 271.06 123.65 267.98 121.05 C 268.64 120.73 269.95 120.10 270.61 119.78 Z" fill="#fffeff" opacity="1.00" stroke="#fffeff" stroke-width="0.25"/>
<path d="M 261.49 127.80 C 262.72 128.54 263.92 129.31 265.12 130.10 C 270.20 130.73 275.03 133.73 280.23 132.49 C 280.82 136.56 281.00 140.82 279.68 144.77 C 278.68 147.81 274.74 147.74 272.13 147.58 C 268.58 146.65 266.47 143.01 262.94 142.02 C 257.02 142.96 252.13 149.34 245.73 146.64 C 243.20 142.38 242.42 137.22 243.33 132.38 C 249.16 132.38 254.86 131.03 260.64 130.51 C 260.85 129.83 261.28 128.48 261.49 127.80 Z" fill="#010004" opacity="1.00" stroke="#010004" stroke-width="0.25"/>
<path d="M 247.48 133.65 C 255.80 133.13 264.41 131.04 272.57 133.72 C 274.47 134.32 276.43 134.67 278.41 134.91 C 279.23 137.76 278.73 140.71 278.44 143.59 C 276.61 145.50 273.60 147.56 271.06 145.64 C 268.83 143.87 266.41 142.20 264.74 139.87 C 268.23 139.46 272.16 140.16 275.03 137.64 C 266.70 135.93 258.22 137.12 249.85 136.39 C 249.06 135.47 248.27 134.56 247.48 133.65 Z" fill="#fdfdff" opacity="1.00" stroke="#fdfdff" stroke-width="0.25"/>
<path d="M 244.55 134.61 C 245.52 134.28 246.50 133.96 247.48 133.65 C 248.27 134.56 249.06 135.47 249.85 136.39 L 249.39 136.68 C 252.51 139.08 256.60 138.90 259.98 140.60 C 256.45 142.79 252.75 146.14 248.34 145.62 C 244.70 143.32 244.67 138.45 244.55 134.61 Z" fill="#c3c4c5" opacity="1.00" stroke="#c3c4c5" stroke-width="0.25"/>
<path d="M 197.49 155.69 C 206.79 151.99 215.59 147.23 224.29 142.32 C 224.40 147.04 225.14 151.69 226.06 156.31 C 220.42 159.27 215.51 163.75 209.18 165.43 C 208.24 163.36 207.91 160.35 205.27 159.76 C 196.92 157.86 188.24 161.91 182.69 168.09 C 182.78 168.57 182.94 169.53 183.02 170.01 C 182.11 169.60 181.48 168.96 181.15 168.08 C 185.06 162.28 191.02 158.19 197.49 155.69 Z" fill="#c6c7c7" opacity="1.00" stroke="#c6c7c7" stroke-width="0.25"/>
<path d="M 227.54 143.01 C 228.78 146.94 231.33 150.27 234.13 153.23 C 235.27 154.37 236.30 155.61 237.22 156.95 C 238.10 158.30 239.29 159.40 240.42 160.55 C 242.65 162.71 243.47 165.98 245.97 167.90 C 248.52 169.97 251.63 171.80 255.05 171.43 C 262.53 170.78 270.01 169.47 277.02 166.68 C 276.49 169.52 275.71 172.43 273.37 174.34 C 273.48 173.29 273.61 172.24 273.74 171.20 C 272.14 177.46 265.76 181.24 264.45 187.62 C 263.97 188.24 263.01 189.48 262.52 190.10 C 262.42 189.89 262.21 189.47 262.11 189.26 C 259.85 182.76 254.13 178.51 250.21 173.11 C 250.33 173.61 250.59 174.61 250.71 175.11 C 249.35 173.79 247.77 172.75 246.15 171.80 C 247.80 176.50 250.83 180.55 252.45 185.26 C 247.56 183.10 243.07 178.20 237.27 179.69 C 230.41 178.69 223.65 176.78 217.08 174.54 C 214.27 173.49 211.39 172.42 209.07 170.46 C 213.69 168.65 219.05 167.22 221.88 162.76 C 223.50 160.99 223.92 158.03 226.19 157.01 C 226.89 159.64 227.70 162.25 228.49 164.86 C 227.55 157.67 225.85 150.19 227.54 143.01 Z" fill="#c4c6c6" opacity="1.00" stroke="#c4c6c6" stroke-width="0.25"/>
<path d="M 292.32 147.91 C 292.60 146.97 292.72 145.73 293.74 145.27 C 303.31 152.38 315.15 155.45 324.87 162.30 C 327.98 164.40 330.78 166.90 333.85 169.06 C 333.21 169.81 332.58 170.56 331.95 171.32 C 345.28 170.92 358.37 176.82 367.70 186.18 C 374.91 193.44 381.64 201.64 384.97 211.45 C 383.43 201.48 377.99 192.11 370.42 185.49 C 360.56 177.10 349.03 169.97 335.99 168.16 C 346.96 163.14 359.61 166.85 369.44 172.75 C 381.85 179.93 389.54 193.36 392.19 207.18 C 393.64 217.44 393.31 228.55 388.11 237.78 C 381.13 231.14 374.04 224.27 365.43 219.77 C 365.28 223.52 364.92 227.33 363.35 230.80 C 360.39 226.01 357.46 221.11 353.35 217.18 C 354.55 219.73 356.03 222.12 357.21 224.68 C 359.21 229.48 358.93 235.19 356.42 239.76 C 349.52 245.61 343.27 252.92 334.18 255.35 C 331.07 255.35 328.25 256.62 325.58 258.07 C 315.47 260.04 304.66 259.34 295.35 254.69 C 288.23 251.05 282.51 244.51 280.35 236.76 C 278.81 231.39 279.71 225.77 280.43 220.34 C 281.84 219.96 283.25 219.52 284.52 218.76 L 283.63 218.73 C 280.37 218.18 277.17 216.77 275.14 214.06 C 273.57 209.25 272.93 204.09 273.56 199.05 C 274.08 194.57 277.99 191.57 279.06 187.27 C 281.94 185.43 284.71 183.20 288.14 182.49 C 293.02 181.39 298.12 181.56 303.06 182.17 C 316.55 184.39 328.53 191.32 340.88 196.78 C 329.64 189.12 317.49 182.47 304.18 179.26 C 308.74 176.81 312.99 173.72 317.94 172.05 C 321.84 170.64 326.02 170.54 330.08 169.92 C 320.20 168.20 309.93 167.97 300.51 164.19 C 296.92 162.99 293.76 160.87 290.48 159.04 C 291.30 155.36 291.53 151.59 292.32 147.91 Z" fill="#fefefe" opacity="1.00" stroke="#fefefe" stroke-width="0.25"/>
<path d="M 284.03 158.08 C 285.96 156.14 287.96 154.26 289.65 152.09 C 289.90 158.81 286.70 164.87 283.74 170.67 C 283.31 172.95 282.20 176.34 284.24 178.09 C 285.12 174.94 286.11 171.81 286.89 168.64 C 287.30 168.61 288.13 168.57 288.55 168.54 C 289.01 165.43 289.57 162.32 290.36 159.27 C 292.55 162.24 294.77 165.34 298.13 167.10 C 301.96 169.87 307.06 167.95 311.01 170.56 C 309.69 172.79 306.88 173.34 304.80 174.64 C 297.20 178.54 288.39 179.42 281.09 183.99 C 275.00 187.20 270.74 192.66 266.00 197.46 C 257.97 189.43 248.05 183.35 237.27 179.69 C 243.07 178.20 247.56 183.10 252.45 185.26 C 250.83 180.55 247.80 176.50 246.15 171.80 C 247.77 172.75 249.35 173.79 250.71 175.11 C 254.04 180.18 257.84 184.94 262.11 189.26 C 262.21 189.47 262.42 189.89 262.52 190.10 C 263.01 189.48 263.97 188.24 264.45 187.62 C 264.45 189.06 264.51 190.50 264.59 191.94 C 267.80 186.22 270.91 180.44 273.37 174.34 C 275.71 172.43 276.49 169.52 277.02 166.68 C 278.43 165.76 279.90 164.96 281.40 164.20 C 282.21 162.14 282.37 159.69 284.03 158.08 Z" fill="#fefefe" opacity="1.00" stroke="#fefefe" stroke-width="0.25"/>
<path d="M 233.05 170.06 C 232.16 165.68 230.15 161.43 230.53 156.88 C 231.93 162.18 234.33 167.09 237.13 171.77 C 237.94 173.63 239.29 176.76 236.97 178.03 C 235.38 175.53 233.60 173.03 233.05 170.06 Z" fill="#000100" opacity="1.00" stroke="#000100" stroke-width="0.25"/>
<path d="M 182.69 168.09 C 188.24 161.91 196.92 157.86 205.27 159.76 C 207.91 160.35 208.24 163.36 209.18 165.43 C 202.33 168.19 194.87 168.27 187.80 170.11 C 199.37 169.60 210.43 174.02 220.10 180.02 C 209.33 184.55 199.34 190.79 190.12 197.94 C 200.02 192.99 209.47 186.96 220.07 183.56 C 228.05 180.95 237.09 180.75 244.77 184.40 C 251.83 187.79 259.25 191.71 263.21 198.81 C 266.05 204.09 267.76 211.07 264.39 216.51 C 262.82 219.11 259.51 219.25 256.90 220.07 C 259.53 220.69 262.18 220.18 264.81 219.86 C 268.55 225.45 270.17 232.40 269.55 239.08 C 269.24 245.95 265.03 251.80 260.68 256.80 C 257.71 260.07 254.24 263.26 249.68 263.93 C 248.95 259.70 252.77 256.93 254.63 253.62 C 249.57 254.82 244.72 256.84 239.53 257.49 C 232.48 258.80 225.29 258.40 218.20 257.69 C 217.64 257.47 216.51 257.04 215.94 256.83 C 211.71 254.86 206.79 255.56 202.61 253.38 C 190.53 248.87 178.64 239.23 177.42 225.54 C 181.50 223.72 185.74 222.31 189.94 220.81 C 185.24 221.03 180.66 222.17 176.05 222.98 C 177.29 220.98 178.67 219.07 180.11 217.22 C 175.35 221.53 171.02 226.31 166.16 230.52 C 163.20 227.24 159.89 224.19 157.62 220.37 C 156.92 219.31 157.66 218.13 158.11 217.16 C 159.67 214.12 161.96 211.46 162.93 208.14 C 155.50 212.08 148.30 216.65 140.18 219.09 C 138.36 209.32 142.28 199.58 147.65 191.59 C 149.83 188.22 153.14 185.47 154.08 181.42 C 162.62 174.27 173.94 171.61 184.85 171.16 C 184.23 170.78 183.62 170.40 183.02 170.01 C 182.94 169.53 182.78 168.57 182.69 168.09 Z" fill="#fefefe" opacity="1.00" stroke="#fefefe" stroke-width="0.25"/>
<path d="M 145.20 170.13 C 155.28 164.88 167.46 164.41 178.08 168.32 C 165.71 171.13 154.42 177.63 144.89 185.91 C 138.10 192.02 133.78 200.43 130.84 208.96 C 127.31 205.72 128.88 200.90 129.77 196.89 C 131.14 190.94 134.54 185.78 137.62 180.61 C 139.71 176.78 143.60 174.28 145.20 170.13 Z" fill="#ffffff" opacity="1.00" stroke="#ffffff" stroke-width="0.25"/>
<path d="M 131.09 178.97 C 135.10 175.07 140.09 172.33 145.20 170.13 C 143.60 174.28 139.71 176.78 137.62 180.61 C 134.54 185.78 131.14 190.94 129.77 196.89 C 128.88 200.90 127.31 205.72 130.84 208.96 C 130.72 210.29 130.59 211.62 130.43 212.95 C 132.45 204.44 138.07 197.27 143.78 190.86 C 146.85 187.34 150.05 183.85 154.08 181.42 C 153.14 185.47 149.83 188.22 147.65 191.59 C 142.28 199.58 138.36 209.32 140.18 219.09 C 148.30 216.65 155.50 212.08 162.93 208.14 C 161.96 211.46 159.67 214.12 158.11 217.16 C 157.66 218.13 156.92 219.31 157.62 220.37 C 159.89 224.19 163.20 227.24 166.16 230.52 C 162.51 233.05 158.46 235.23 153.98 235.76 C 148.19 236.61 142.33 237.39 136.87 239.61 C 134.62 240.58 132.06 241.38 130.58 243.48 C 126.83 248.41 124.25 254.10 121.75 259.73 C 120.33 262.81 119.60 266.37 117.03 268.77 C 116.25 267.84 115.50 266.88 114.79 265.91 C 117.88 257.52 122.47 249.78 127.35 242.34 C 128.95 240.53 126.17 239.13 125.36 237.62 C 125.41 236.16 125.10 234.73 124.38 233.46 C 118.16 221.96 117.96 207.72 122.56 195.61 C 124.58 189.65 128.61 184.70 131.09 178.97 Z" fill="#c7c7c7" opacity="1.00" stroke="#c7c7c7" stroke-width="0.25"/>
<path d="M 261.27 173.43 C 264.23 172.19 267.25 171.05 270.36 170.23 C 271.82 173.34 268.80 175.77 267.18 178.06 C 266.04 179.78 262.79 180.30 261.69 178.29 C 260.87 176.80 261.31 175.04 261.27 173.43 Z" fill="#feffff" opacity="1.00" stroke="#feffff" stroke-width="0.25"/>
<path d="M 273.74 171.20 C 273.61 172.24 273.48 173.29 273.37 174.34 C 270.91 180.44 267.80 186.22 264.59 191.94 C 264.51 190.50 264.45 189.06 264.45 187.62 C 265.76 181.24 272.14 177.46 273.74 171.20 Z" fill="#000000" opacity="1.00" stroke="#000000" stroke-width="0.25"/>
<path d="M 250.21 173.11 C 254.13 178.51 259.85 182.76 262.11 189.26 C 257.84 184.94 254.04 180.18 250.71 175.11 C 250.59 174.61 250.33 173.61 250.21 173.11 Z" fill="#030303" opacity="1.00" stroke="#030303" stroke-width="0.25"/>
<path d="M 275.97 183.90 C 274.78 179.86 278.05 176.49 279.58 173.04 C 279.30 176.89 277.87 180.57 275.97 183.90 Z" fill="#06070a" opacity="1.00" stroke="#06070a" stroke-width="0.25"/>
<path d="M 117.67 203.09 C 119.91 194.09 124.05 185.21 131.09 178.97 C 128.61 184.70 124.58 189.65 122.56 195.61 C 117.96 207.72 118.16 221.96 124.38 233.46 C 125.10 234.73 125.41 236.16 125.36 237.62 C 117.36 228.24 114.62 214.96 117.67 203.09 Z" fill="#ffffff" opacity="1.00" stroke="#ffffff" stroke-width="0.25"/>
<path d="M 273.44 190.70 C 275.32 189.57 277.18 188.41 279.06 187.27 C 277.99 191.57 274.08 194.57 273.56 199.05 C 272.93 204.09 273.57 209.25 275.14 214.06 C 269.95 207.67 268.38 197.62 273.44 190.70 Z" fill="#c5c5c5" opacity="1.00" stroke="#c5c5c5" stroke-width="0.25"/>
<path d="M 283.63 218.73 L 284.52 218.76 C 283.25 219.52 281.84 219.96 280.43 220.34 C 279.71 225.77 278.81 231.39 280.35 236.76 C 282.51 244.51 288.23 251.05 295.35 254.69 C 304.66 259.34 315.47 260.04 325.58 258.07 C 325.80 259.47 325.39 261.35 327.07 262.00 C 330.11 263.37 334.29 261.83 335.82 258.84 C 336.24 257.35 335.15 256.27 334.18 255.35 C 343.27 252.92 349.52 245.61 356.42 239.76 C 351.98 250.40 342.93 258.56 332.97 264.02 C 322.29 268.73 310.10 267.50 298.98 265.17 C 295.27 264.17 290.98 263.86 288.20 260.90 C 282.80 255.39 277.97 248.99 275.81 241.49 C 274.22 234.00 273.89 225.91 276.50 218.61 C 278.87 218.77 281.25 218.80 283.63 218.73 Z" fill="#c6c6c6" opacity="1.00" stroke="#c6c6c6" stroke-width="0.25"/>
<path d="M 365.43 219.77 C 374.04 224.27 381.13 231.14 388.11 237.78 C 387.23 238.91 386.26 239.96 385.30 241.02 C 384.32 240.77 382.35 240.28 381.36 240.04 L 382.16 239.81 C 382.53 239.70 383.29 239.49 383.67 239.39 C 379.24 237.87 374.72 236.63 370.22 235.36 C 367.51 234.62 365.02 233.07 363.35 230.80 C 364.92 227.33 365.28 223.52 365.43 219.77 Z" fill="#c6c7c6" opacity="1.00" stroke="#c6c7c6" stroke-width="0.25"/>
<path d="M 170.96 231.95 C 171.77 228.76 174.39 226.55 177.42 225.54 C 178.64 239.23 190.53 248.87 202.61 253.38 C 206.79 255.56 211.71 254.86 215.94 256.83 C 213.22 255.91 210.33 256.00 207.55 256.56 C 206.54 261.95 213.36 264.06 217.39 262.27 C 219.17 261.31 218.16 259.25 218.20 257.69 C 225.29 258.40 232.48 258.80 239.53 257.49 C 244.72 256.84 249.57 254.82 254.63 253.62 C 252.77 256.93 248.95 259.70 249.68 263.93 C 240.36 266.42 230.65 267.33 221.02 267.14 C 204.51 265.90 189.06 258.00 176.54 247.46 C 171.95 243.87 169.65 237.63 170.96 231.95 Z" fill="#c6c6c6" opacity="1.00" stroke="#c6c6c6" stroke-width="0.25"/>
<path d="M 140.46 239.25 C 147.88 238.38 155.31 240.04 162.76 239.82 C 162.55 254.78 156.55 269.53 146.74 280.78 C 143.04 279.17 139.01 281.09 135.25 281.51 C 136.48 277.44 139.95 274.60 142.24 271.14 C 146.42 264.92 151.11 258.91 153.95 251.91 C 155.11 248.60 155.89 243.75 152.14 241.80 C 148.95 238.84 144.37 239.99 140.46 239.25 Z" fill="#c6c7c7" opacity="1.00" stroke="#c6c7c7" stroke-width="0.25"/>
<path d="M 358.81 259.97 C 358.54 252.87 358.01 245.49 360.69 238.74 C 365.09 239.57 369.60 239.53 374.04 239.05 C 370.27 239.95 366.75 242.56 365.53 246.33 C 364.74 250.60 365.57 254.97 367.07 258.99 C 369.79 267.78 374.81 275.57 379.51 283.40 C 375.37 283.81 371.41 281.75 367.23 282.29 C 364.97 278.99 362.63 275.70 361.04 272.01 C 359.37 268.23 359.14 264.03 358.81 259.97 Z" fill="#c6c7c7" opacity="1.00" stroke="#c6c7c7" stroke-width="0.25"/>
<path d="M 271.33 249.12 C 274.77 253.61 279.40 256.99 283.15 261.15 C 277.37 260.26 273.24 255.84 268.83 252.42 C 269.66 251.32 270.49 250.22 271.33 249.12 Z" fill="#c4c4c4" opacity="1.00" stroke="#c4c4c4" stroke-width="0.25"/>
<path d="M 262.86 258.82 C 265.01 256.84 267.09 254.78 268.83 252.42 C 273.24 255.84 277.37 260.26 283.15 261.15 C 284.06 261.40 284.92 261.75 285.75 262.22 C 296.70 268.44 309.37 272.60 322.08 271.17 C 319.68 271.69 317.24 272.01 314.82 272.35 C 319.31 275.55 325.12 274.60 330.18 273.60 C 330.50 273.60 331.15 273.62 331.48 273.63 C 329.16 275.51 326.70 277.22 324.06 278.62 C 329.97 277.67 334.57 273.53 339.77 270.91 C 340.20 274.99 337.55 278.32 334.87 281.02 C 332.34 283.33 328.92 284.17 325.89 285.61 C 330.42 285.96 334.45 283.62 338.85 283.15 C 336.46 291.00 329.67 296.26 324.06 301.82 C 329.35 300.99 332.46 295.28 337.59 294.40 C 336.29 297.20 335.18 300.08 333.79 302.84 C 329.90 309.72 323.70 314.63 318.26 320.18 C 318.36 318.78 318.50 317.39 318.68 316.00 L 319.78 315.24 C 322.68 313.02 324.97 310.11 326.96 307.07 C 323.96 307.48 321.48 309.21 319.00 310.71 C 318.00 307.50 321.46 305.35 322.80 302.79 C 321.34 303.63 319.93 304.55 318.53 305.48 C 318.67 303.92 318.80 302.37 318.94 300.81 C 319.52 296.42 318.65 291.99 317.59 287.73 C 317.49 289.33 317.42 290.93 317.36 292.53 C 312.08 295.51 307.40 300.25 301.04 300.69 C 295.11 301.44 289.28 298.92 284.58 295.51 C 277.13 288.25 276.52 276.90 277.37 267.16 C 279.03 266.86 280.68 266.55 282.35 266.30 C 283.95 266.42 285.55 266.51 287.15 266.57 C 276.33 263.08 264.01 263.33 253.85 268.75 C 258.22 267.70 262.62 266.41 267.16 266.44 C 268.68 266.24 269.73 267.66 270.33 268.86 C 270.37 271.80 269.65 274.68 269.28 277.58 C 265.86 283.64 267.34 291.91 261.87 296.84 C 254.11 302.20 242.23 302.70 235.13 295.92 C 232.11 292.95 230.14 288.98 226.54 286.59 C 226.38 284.42 226.32 282.25 226.28 280.08 C 225.29 284.42 223.50 288.56 222.92 293.01 C 222.38 296.39 222.77 299.96 221.32 303.16 C 217.21 300.96 214.08 297.39 210.17 294.89 C 213.23 298.31 216.27 301.81 219.74 304.84 C 219.13 306.55 219.14 309.33 217.14 309.89 C 214.68 308.85 212.49 307.31 210.36 305.73 C 207.96 302.80 205.33 299.97 203.72 296.51 C 202.95 293.80 202.98 290.95 202.72 288.17 C 203.67 288.04 205.57 287.77 206.52 287.63 C 205.57 287.14 204.64 286.65 203.67 286.22 C 203.15 286.02 202.11 285.63 201.59 285.44 C 203.21 282.97 204.17 280.17 204.87 277.32 C 206.33 277.32 207.70 277.69 208.97 278.41 C 209.21 278.28 209.45 278.14 209.69 278.00 C 208.14 277.39 206.63 276.69 205.12 275.99 C 208.64 274.82 212.36 274.65 216.02 274.36 C 219.59 274.10 222.50 271.61 226.04 271.20 C 228.09 270.87 230.16 270.54 232.15 269.90 C 239.24 268.34 246.27 266.53 253.08 264.01 C 256.68 263.01 259.96 261.15 262.86 258.82 Z" fill="#fefefe" opacity="1.00" stroke="#fefefe" stroke-width="0.25"/>
<path d="M 207.55 256.56 C 210.33 256.00 213.22 255.91 215.94 256.83 C 216.51 257.04 217.64 257.47 218.20 257.69 C 218.16 259.25 219.17 261.31 217.39 262.27 C 213.36 264.06 206.54 261.95 207.55 256.56 Z" fill="#030303" opacity="1.00" stroke="#030303" stroke-width="0.25"/>
<path d="M 325.58 258.07 C 328.25 256.62 331.07 255.35 334.18 255.35 C 335.15 256.27 336.24 257.35 335.82 258.84 C 334.29 261.83 330.11 263.37 327.07 262.00 C 325.39 261.35 325.80 259.47 325.58 258.07 Z" fill="#000000" opacity="1.00" stroke="#000000" stroke-width="0.25"/>
<path d="M 154.59 276.35 C 161.37 272.28 164.74 264.47 166.86 257.19 C 169.37 258.12 171.90 259.03 174.49 259.76 C 174.39 270.94 174.85 282.37 178.72 292.99 C 179.69 296.23 181.43 299.24 181.84 302.64 C 175.52 301.70 169.74 298.86 164.12 295.96 L 164.23 295.64 C 164.37 295.22 164.63 294.40 164.76 293.98 C 163.21 290.42 160.99 287.20 159.44 283.63 C 158.15 281.02 157.37 277.83 154.59 276.35 Z" fill="#c6c8c7" opacity="1.00" stroke="#c6c8c7" stroke-width="0.25"/>
<path d="M 344.67 263.72 C 346.72 262.08 348.94 260.67 351.16 259.26 C 351.47 263.67 352.76 268.02 355.15 271.75 C 356.59 273.84 354.47 276.10 353.68 278.04 C 353.28 273.10 348.64 270.56 344.64 268.74 C 344.64 267.06 344.66 265.39 344.67 263.72 Z" fill="#c5c5c5" opacity="1.00" stroke="#c5c5c5" stroke-width="0.25"/>
<path d="M 253.85 268.75 C 264.01 263.33 276.33 263.08 287.15 266.57 C 285.55 266.51 283.95 266.42 282.35 266.30 C 279.86 265.83 277.34 265.99 274.89 266.58 C 274.57 267.15 273.94 268.28 273.62 268.85 C 275.67 280.54 274.13 292.45 271.90 303.99 C 270.69 309.64 272.60 315.29 272.43 320.97 C 272.38 330.50 270.12 339.86 270.19 349.41 C 267.65 347.12 269.26 343.01 268.51 339.97 C 267.46 333.36 268.26 326.76 268.83 320.16 C 269.51 317.50 270.17 314.83 270.53 312.11 C 271.19 307.89 270.71 303.61 269.98 299.43 C 269.06 292.19 269.22 284.86 269.28 277.58 C 269.65 274.68 270.37 271.80 270.33 268.86 C 269.73 267.66 268.68 266.24 267.16 266.44 C 262.62 266.41 258.22 267.70 253.85 268.75 Z" fill="#000101" opacity="1.00" stroke="#000101" stroke-width="0.25"/>
<path d="M 189.16 265.33 C 198.82 268.53 208.85 270.78 219.04 271.21 C 223.45 271.23 227.78 270.31 232.15 269.90 C 230.16 270.54 228.09 270.87 226.04 271.20 C 222.50 271.61 219.59 274.10 216.02 274.36 C 212.36 274.65 208.64 274.82 205.12 275.99 C 200.05 273.97 195.00 271.63 190.68 268.25 C 189.57 267.64 189.29 266.48 189.16 265.33 Z" fill="#c7c7c7" opacity="1.00" stroke="#c7c7c7" stroke-width="0.25"/>
<path d="M 274.89 266.58 C 277.34 265.99 279.86 265.83 282.35 266.30 C 280.68 266.55 279.03 266.86 277.37 267.16 C 276.52 276.90 277.13 288.25 284.58 295.51 C 289.28 298.92 295.11 301.44 301.04 300.69 C 307.40 300.25 312.08 295.51 317.36 292.53 C 317.39 296.49 314.13 299.05 311.74 301.75 C 306.80 306.85 298.89 309.60 292.12 306.77 C 286.96 303.89 281.68 301.09 276.03 299.33 C 277.64 301.09 279.59 302.53 281.07 304.42 C 281.26 304.89 281.65 305.82 281.85 306.28 C 279.43 306.42 275.64 304.17 274.13 307.06 C 272.78 313.11 274.25 319.41 275.62 325.35 C 276.63 330.19 281.51 332.58 285.67 334.27 C 291.78 336.62 298.30 334.95 304.56 334.35 C 303.17 336.10 301.10 337.04 299.17 338.07 C 295.54 339.80 291.61 340.78 287.70 341.69 C 283.20 342.02 278.57 341.00 274.17 342.14 C 272.85 344.21 272.88 346.76 272.72 349.12 C 273.40 349.25 274.76 349.52 275.44 349.65 C 273.51 349.91 271.55 350.23 269.65 349.63 C 266.55 350.94 263.22 349.71 260.07 349.36 L 260.71 350.91 C 259.82 350.28 258.98 349.60 258.19 348.87 C 261.46 348.95 264.71 349.33 267.96 349.77 C 268.19 347.10 269.20 343.33 266.27 341.76 C 261.67 339.42 256.33 340.94 251.52 341.75 C 247.71 341.13 243.78 340.63 240.27 338.91 C 233.93 335.91 229.07 330.61 224.72 325.25 C 219.37 318.65 221.04 309.23 223.97 301.93 C 225.75 302.60 227.51 303.36 229.24 304.17 C 227.50 304.55 225.08 304.80 224.84 307.04 C 223.17 316.28 229.75 324.11 235.49 330.51 C 241.50 337.57 252.32 338.00 260.24 334.21 C 265.64 331.68 266.97 325.24 268.83 320.16 C 268.26 326.76 267.46 333.36 268.51 339.97 C 269.26 343.01 267.65 347.12 270.19 349.41 C 270.12 339.86 272.38 330.50 272.43 320.97 C 272.60 315.29 270.69 309.64 271.90 303.99 C 274.13 292.45 275.67 280.54 273.62 268.85 C 273.94 268.28 274.57 267.15 274.89 266.58 Z" fill="#c7c7c7" opacity="1.00" stroke="#c7c7c7" stroke-width="0.25"/>
<path d="M 184.37 267.36 C 190.68 271.59 197.36 275.66 204.96 276.98 L 204.87 277.32 C 204.17 280.17 203.21 282.97 201.59 285.44 L 201.27 285.99 C 193.93 281.94 184.49 276.99 184.37 267.36 Z" fill="#c7c7c7" opacity="1.00" stroke="#c7c7c7" stroke-width="0.25"/>
<path d="M 322.08 271.17 C 327.47 270.29 332.64 268.51 337.93 267.23 C 336.56 269.91 334.30 271.95 331.87 273.65 L 331.48 273.63 C 331.15 273.62 330.50 273.60 330.18 273.60 C 325.12 274.60 319.31 275.55 314.82 272.35 C 317.24 272.01 319.68 271.69 322.08 271.17 Z" fill="#c3c3c3" opacity="1.00" stroke="#c3c3c3" stroke-width="0.25"/>
<path d="M 344.64 268.74 C 348.64 270.56 353.28 273.10 353.68 278.04 C 352.47 281.00 351.24 283.96 349.79 286.81 C 348.49 289.41 347.00 291.93 345.15 294.18 C 343.56 294.98 341.98 295.80 340.40 296.60 C 341.76 287.31 344.41 278.18 344.64 268.74 Z" fill="#ffffff" opacity="1.00" stroke="#ffffff" stroke-width="0.25"/>
<path d="M 154.59 276.35 C 157.37 277.83 158.15 281.02 159.44 283.63 C 160.99 287.20 163.21 290.42 164.76 293.98 C 164.63 294.40 164.37 295.22 164.23 295.64 C 161.75 292.72 160.07 289.27 158.27 285.93 C 157.45 284.27 156.64 282.62 155.77 281.01 C 154.97 279.53 154.57 277.98 154.59 276.35 Z" fill="#fefefe" opacity="1.00" stroke="#fefefe" stroke-width="0.25"/>
<path d="M 261.87 296.84 C 267.34 291.91 265.86 283.64 269.28 277.58 C 269.22 284.86 269.06 292.19 269.98 299.43 C 270.71 303.61 271.19 307.89 270.53 312.11 C 269.79 308.49 268.13 304.60 264.39 303.22 C 264.12 303.14 263.60 302.97 263.33 302.89 C 258.27 303.83 253.28 305.81 248.06 305.43 C 241.81 304.26 236.26 300.63 231.84 296.16 C 229.23 293.56 226.93 290.35 226.54 286.59 C 230.14 288.98 232.11 292.95 235.13 295.92 C 242.23 302.70 254.11 302.20 261.87 296.84 Z" fill="#c6c7c6" opacity="1.00" stroke="#c6c7c6" stroke-width="0.25"/>
<path d="M 226.28 280.08 C 226.32 282.25 226.38 284.42 226.54 286.59 C 226.93 290.35 229.23 293.56 231.84 296.16 C 236.26 300.63 241.81 304.26 248.06 305.43 C 253.28 305.81 258.27 303.83 263.33 302.89 C 263.60 302.97 264.12 303.14 264.39 303.22 C 259.04 305.20 253.68 307.52 247.89 307.73 C 241.52 307.95 235.02 306.92 229.24 304.17 C 227.51 303.36 225.75 302.60 223.97 301.93 C 221.04 309.23 219.37 318.65 224.72 325.25 C 229.07 330.61 233.93 335.91 240.27 338.91 C 243.78 340.63 247.71 341.13 251.52 341.75 C 245.74 342.96 239.62 343.22 233.99 341.19 C 231.82 340.42 229.75 339.40 227.70 338.37 C 226.36 344.20 223.50 349.91 224.44 356.04 C 225.60 364.06 229.20 371.41 232.20 378.85 C 234.68 383.57 237.42 388.50 241.92 391.58 C 240.28 391.95 238.62 391.74 237.07 391.11 C 231.56 387.11 226.02 382.47 223.45 375.96 C 220.72 369.00 219.73 361.24 221.33 353.89 C 222.12 349.20 223.83 344.71 224.49 340.01 C 224.57 335.58 221.44 332.05 220.00 328.05 C 218.92 325.33 217.88 322.58 217.03 319.79 C 215.85 313.87 209.57 311.30 206.09 306.87 C 210.02 308.36 212.82 311.98 217.03 312.80 C 214.96 310.33 211.49 308.88 210.36 305.73 C 212.49 307.31 214.68 308.85 217.14 309.89 C 219.14 309.33 219.13 306.55 219.74 304.84 C 216.27 301.81 213.23 298.31 210.17 294.89 C 214.08 297.39 217.21 300.96 221.32 303.16 C 222.77 299.96 222.38 296.39 222.92 293.01 C 223.50 288.56 225.29 284.42 226.28 280.08 Z" fill="#010101" opacity="1.00" stroke="#010101" stroke-width="0.25"/>
<path d="M 184.37 282.44 C 190.90 282.98 197.03 287.50 203.67 286.22 C 204.64 286.65 205.57 287.14 206.52 287.63 C 205.57 287.77 203.67 288.04 202.72 288.17 C 202.98 290.95 202.95 293.80 203.72 296.51 C 205.33 299.97 207.96 302.80 210.36 305.73 C 211.49 308.88 214.96 310.33 217.03 312.80 C 212.82 311.98 210.02 308.36 206.09 306.87 C 209.57 311.30 215.85 313.87 217.03 319.79 C 217.12 320.63 217.29 322.33 217.37 323.17 L 216.52 323.52 C 211.71 318.92 206.41 314.91 201.18 310.81 C 196.42 306.88 192.38 302.12 189.03 296.94 C 188.43 296.10 188.21 295.16 188.37 294.12 C 192.33 297.86 197.37 300.18 202.15 302.67 C 196.20 296.07 187.15 291.54 184.37 282.44 Z" fill="#c7c7c7" opacity="1.00" stroke="#c7c7c7" stroke-width="0.25"/>
<path d="M 318.28 310.84 C 318.25 307.49 317.97 304.06 318.94 300.81 C 318.80 302.37 318.67 303.92 318.53 305.48 C 319.93 304.55 321.34 303.63 322.80 302.79 C 321.46 305.35 318.00 307.50 319.00 310.71 C 321.48 309.21 323.96 307.48 326.96 307.07 C 324.97 310.11 322.68 313.02 319.78 315.24 C 319.88 313.57 319.42 312.06 318.28 310.84 Z" fill="#686868" opacity="1.00" stroke="#686868" stroke-width="0.25"/>
<path d="M 187.67 301.19 C 194.41 305.74 199.04 312.61 205.29 317.71 C 205.97 318.44 207.22 318.88 207.47 319.91 C 207.74 325.04 210.17 329.68 210.76 334.75 C 208.48 332.60 206.32 330.34 204.11 328.12 C 204.45 328.72 204.80 329.34 205.16 329.95 C 203.12 336.78 202.38 343.91 201.66 350.97 C 201.43 359.37 206.81 366.39 209.20 374.13 C 206.51 372.88 204.77 370.40 202.52 368.58 C 199.68 366.29 196.79 364.07 193.66 362.20 C 193.70 362.88 193.76 364.23 193.80 364.91 C 190.19 354.88 193.31 344.19 194.05 333.95 C 195.12 327.50 193.10 321.17 191.39 315.03 C 191.51 314.46 191.75 313.31 191.86 312.74 C 190.74 308.78 188.44 305.26 187.67 301.19 Z" fill="#c7c7c7" opacity="1.00" stroke="#c7c7c7" stroke-width="0.25"/>
<path d="M 247.89 307.73 C 253.68 307.52 259.04 305.20 264.39 303.22 C 268.13 304.60 269.79 308.49 270.53 312.11 C 270.17 314.83 269.51 317.50 268.83 320.16 C 266.97 325.24 265.64 331.68 260.24 334.21 C 252.32 338.00 241.50 337.57 235.49 330.51 C 229.75 324.11 223.17 316.28 224.84 307.04 C 225.08 304.80 227.50 304.55 229.24 304.17 C 235.02 306.92 241.52 307.95 247.89 307.73 Z" fill="#fefefe" opacity="1.00" stroke="#fefefe" stroke-width="0.25"/>
<path d="M 281.07 304.42 C 282.69 306.12 284.71 307.32 286.81 308.33 C 293.52 310.73 301.02 311.90 307.91 309.60 C 310.85 308.81 313.43 307.08 316.37 306.29 C 316.16 309.91 315.66 313.50 315.18 317.09 C 313.47 323.65 310.47 330.08 304.98 334.31 L 304.56 334.35 C 298.30 334.95 291.78 336.62 285.67 334.27 C 281.51 332.58 276.63 330.19 275.62 325.35 C 274.25 319.41 272.78 313.11 274.13 307.06 C 275.64 304.17 279.43 306.42 281.85 306.28 C 281.65 305.82 281.26 304.89 281.07 304.42 Z" fill="#fefefe" opacity="1.00" stroke="#fefefe" stroke-width="0.25"/>
<path d="M 326.21 316.10 C 329.32 312.55 331.42 308.17 334.87 304.94 C 332.81 313.12 326.66 319.76 325.29 328.16 C 325.36 337.94 329.33 347.30 329.20 357.12 C 328.93 361.52 327.47 366.08 323.92 368.92 C 318.13 373.99 314.63 380.94 309.73 386.75 C 308.54 388.06 310.56 387.84 310.79 386.75 C 315.53 384.79 320.10 382.12 323.74 378.46 C 324.17 378.41 325.04 378.30 325.48 378.25 C 325.47 379.52 325.47 380.80 325.45 382.08 C 318.55 386.13 311.72 390.46 304.09 393.02 C 285.00 399.44 264.16 399.82 244.55 395.61 C 244.23 394.42 243.91 393.25 243.59 392.08 C 242.13 392.53 240.65 392.95 239.18 393.36 C 238.49 392.60 237.78 391.84 237.07 391.11 C 238.62 391.74 240.28 391.95 241.92 391.58 C 240.07 386.88 237.22 382.69 234.76 378.31 C 232.49 374.32 231.18 369.90 229.11 365.82 C 226.92 361.58 226.18 356.67 226.63 351.95 C 227.35 347.46 230.98 344.28 233.99 341.19 C 239.62 343.22 245.74 342.96 251.52 341.75 C 256.33 340.94 261.67 339.42 266.27 341.76 C 269.20 343.33 268.19 347.10 267.96 349.77 C 264.71 349.33 261.46 348.95 258.19 348.87 C 258.98 349.60 259.82 350.28 260.71 350.91 C 263.30 352.69 265.87 354.51 268.63 356.02 C 269.00 363.36 268.16 370.71 268.79 378.05 C 269.66 370.52 270.60 362.96 270.37 355.35 C 272.61 353.38 274.96 351.54 277.26 349.64 C 276.81 349.64 275.90 349.64 275.44 349.65 C 274.76 349.52 273.40 349.25 272.72 349.12 C 272.88 346.76 272.85 344.21 274.17 342.14 C 278.57 341.00 283.20 342.02 287.70 341.69 C 291.21 341.88 294.75 342.29 298.25 341.71 C 300.25 341.47 302.20 340.95 304.15 340.44 C 304.44 340.13 305.02 339.53 305.32 339.22 C 305.88 341.46 306.33 343.75 306.99 345.96 C 307.18 345.63 307.54 344.97 307.73 344.64 C 310.48 342.75 311.30 339.44 312.57 336.56 C 313.94 333.18 316.21 330.12 316.61 326.40 C 319.65 322.87 323.61 320.07 326.21 316.10 Z" fill="#fefefe" opacity="1.00" stroke="#fefefe" stroke-width="0.25"/>
<path d="M 192.40 330.92 C 193.17 323.37 189.17 316.43 187.76 309.22 C 189.10 311.06 190.68 312.82 191.39 315.03 C 193.10 321.17 195.12 327.50 194.05 333.95 C 193.31 344.19 190.19 354.88 193.80 364.91 C 195.14 367.61 196.89 370.13 197.94 372.98 C 193.88 369.33 190.62 364.54 189.81 359.05 C 188.75 349.60 190.52 340.15 192.40 330.92 Z" fill="#ffffff" opacity="1.00" stroke="#ffffff" stroke-width="0.25"/>
<path d="M 207.47 319.91 C 209.87 321.21 212.11 322.78 214.40 324.28 C 215.25 324.79 216.13 325.26 216.99 325.76 C 217.16 331.17 220.97 335.61 221.23 340.97 C 221.11 344.63 220.59 348.44 218.58 351.59 C 218.09 345.20 214.80 339.55 210.76 334.75 C 210.17 329.68 207.74 325.04 207.47 319.91 Z" fill="#ffffff" opacity="1.00" stroke="#ffffff" stroke-width="0.25"/>
<path d="M 217.03 319.79 C 217.88 322.58 218.92 325.33 220.00 328.05 C 219.11 327.15 218.10 326.37 216.99 325.76 C 216.13 325.26 215.25 324.79 214.40 324.28 C 214.93 324.09 215.99 323.71 216.52 323.52 L 217.37 323.17 C 217.29 322.33 217.12 320.63 217.03 319.79 Z" fill="#696969" opacity="1.00" stroke="#696969" stroke-width="0.25"/>
<path d="M 216.99 325.76 C 218.10 326.37 219.11 327.15 220.00 328.05 C 221.44 332.05 224.57 335.58 224.49 340.01 C 223.83 344.71 222.12 349.20 221.33 353.89 C 219.73 361.24 220.72 369.00 223.45 375.96 C 226.02 382.47 231.56 387.11 237.07 391.11 C 237.78 391.84 238.49 392.60 239.18 393.36 C 240.65 392.95 242.13 392.53 243.59 392.08 C 243.91 393.25 244.23 394.42 244.55 395.61 C 241.08 395.16 237.68 394.29 234.36 393.21 C 231.32 389.42 227.20 386.55 224.78 382.27 C 221.49 376.46 218.87 370.14 218.34 363.42 C 218.78 359.49 218.74 355.53 218.58 351.59 C 220.59 348.44 221.11 344.63 221.23 340.97 C 220.97 335.61 217.16 331.17 216.99 325.76 Z" fill="#cdcdcd" opacity="1.00" stroke="#cdcdcd" stroke-width="0.25"/>
<path d="M 313.35 329.46 C 314.18 328.24 314.78 326.39 316.61 326.40 C 316.21 330.12 313.94 333.18 312.57 336.56 C 311.30 339.44 310.48 342.75 307.73 344.64 C 306.99 338.86 310.68 334.17 313.35 329.46 Z" fill="#c4c4c4" opacity="1.00" stroke="#c4c4c4" stroke-width="0.25"/>
<path d="M 205.16 329.95 C 204.80 329.34 204.45 328.72 204.11 328.12 C 206.32 330.34 208.48 332.60 210.76 334.75 C 214.80 339.55 218.09 345.20 218.58 351.59 C 218.74 355.53 218.78 359.49 218.34 363.42 C 215.23 351.86 211.57 340.16 205.16 329.95 Z" fill="#000000" opacity="1.00" stroke="#000000" stroke-width="0.25"/>
<path d="M 201.66 350.97 C 202.38 343.91 203.12 336.78 205.16 329.95 C 211.57 340.16 215.23 351.86 218.34 363.42 C 218.87 370.14 221.49 376.46 224.78 382.27 C 227.20 386.55 231.32 389.42 234.36 393.21 C 230.57 392.14 226.75 391.15 223.02 389.88 C 218.28 388.45 213.69 386.59 208.99 385.05 C 209.75 384.27 210.50 383.49 211.32 382.78 C 211.49 382.66 211.84 382.41 212.01 382.28 C 213.45 384.11 215.75 384.83 217.78 385.79 C 215.91 381.77 212.42 378.65 209.57 375.27 C 209.48 374.99 209.29 374.42 209.20 374.13 C 206.81 366.39 201.43 359.37 201.66 350.97 Z" fill="#ffffff" opacity="1.00" stroke="#ffffff" stroke-width="0.25"/>
<path d="M 316.09 342.97 C 317.59 340.52 319.12 338.06 320.91 335.79 C 319.40 340.80 318.52 346.16 315.81 350.69 C 313.43 354.06 310.97 357.77 310.30 361.86 C 310.15 361.39 310.01 360.93 309.87 360.48 C 312.08 354.70 312.89 348.36 316.09 342.97 Z" fill="#000000" opacity="1.00" stroke="#000000" stroke-width="0.25"/>
<path d="M 227.70 338.37 C 229.75 339.40 231.82 340.42 233.99 341.19 C 230.98 344.28 227.35 347.46 226.63 351.95 C 226.18 356.67 226.92 361.58 229.11 365.82 C 231.18 369.90 232.49 374.32 234.76 378.31 C 237.22 382.69 240.07 386.88 241.92 391.58 C 237.42 388.50 234.68 383.57 232.20 378.85 C 229.20 371.41 225.60 364.06 224.44 356.04 C 223.50 349.91 226.36 344.20 227.70 338.37 Z" fill="#cacaca" opacity="1.00" stroke="#cacaca" stroke-width="0.25"/>
<path d="M 287.70 341.69 C 291.61 340.78 295.54 339.80 299.17 338.07 C 298.11 339.44 296.48 340.04 294.91 340.62 C 296.02 340.97 297.13 341.34 298.25 341.71 C 294.75 342.29 291.21 341.88 287.70 341.69 Z" fill="#242424" opacity="1.00" stroke="#242424" stroke-width="0.25"/>
<path d="M 275.44 349.65 C 275.90 349.64 276.81 349.64 277.26 349.64 C 274.96 351.54 272.61 353.38 270.37 355.35 C 270.60 362.96 269.66 370.52 268.79 378.05 C 268.16 370.71 269.00 363.36 268.63 356.02 C 265.87 354.51 263.30 352.69 260.71 350.91 L 260.07 349.36 C 263.22 349.71 266.55 350.94 269.65 349.63 C 271.55 350.23 273.51 349.91 275.44 349.65 Z" fill="#000000" opacity="1.00" stroke="#000000" stroke-width="0.25"/>
<path d="M 304.43 366.92 C 306.04 361.07 305.88 354.92 307.06 349.02 C 308.43 358.06 306.68 367.16 305.37 376.09 C 304.30 382.94 299.48 388.47 294.51 392.95 C 297.46 384.13 302.53 376.10 304.43 366.92 Z" fill="#000000" opacity="1.00" stroke="#000000" stroke-width="0.25"/>
<path d="M 195.06 377.92 C 193.68 376.69 194.99 372.88 197.16 373.40 C 201.03 377.73 207.16 378.90 211.32 382.78 C 210.50 383.49 209.75 384.27 208.99 385.05 C 204.03 383.38 199.39 380.84 195.06 377.92 Z" fill="#c6c6c4" opacity="1.00" stroke="#c6c6c4" stroke-width="0.25"/>
<path d="M 188.20 406.56 C 188.18 397.28 190.49 388.13 193.66 379.47 C 195.70 380.75 197.71 382.09 199.65 383.54 C 195.37 391.18 195.49 400.54 196.61 408.98 C 193.87 407.97 191.04 407.23 188.20 406.56 Z" fill="#56538e" opacity="1.00" stroke="#56538e" stroke-width="0.25"/>
<path d="M 196.61 408.98 C 195.49 400.54 195.37 391.18 199.65 383.54 C 210.01 390.16 221.47 394.91 233.12 398.74 C 263.70 408.72 299.21 403.90 325.15 384.59 L 326.36 384.10 C 328.03 391.07 330.04 398.06 330.48 405.25 C 325.14 407.25 320.82 411.07 316.15 414.22 C 307.59 420.48 298.56 426.68 292.66 435.71 C 286.47 445.10 284.71 456.44 280.86 466.82 C 276.16 477.73 260.46 480.97 251.51 473.41 C 246.81 470.22 246.72 464.01 245.24 459.05 C 239.56 435.16 219.42 416.63 196.61 408.98 Z" fill="#6c67a3" opacity="1.00" stroke="#6c67a3" stroke-width="0.25"/>
<path d="M 187.36 410.50 C 191.69 409.26 196.06 411.24 199.78 413.33 C 206.60 417.24 213.21 421.60 219.10 426.83 C 221.04 428.49 219.80 431.23 219.77 433.40 C 216.24 431.63 214.69 427.75 211.70 425.35 C 208.02 422.24 204.44 417.90 199.38 417.37 C 195.75 419.32 193.24 422.89 189.40 424.54 C 185.11 426.42 181.18 429.19 176.57 430.26 C 177.98 425.53 180.43 421.23 182.61 416.84 C 183.90 414.56 185.07 411.95 187.36 410.50 Z" fill="#c7c7c7" opacity="1.00" stroke="#c7c7c7" stroke-width="0.25"/>
<path d="M 306.79 426.16 C 308.19 424.60 309.63 423.06 311.25 421.72 C 310.94 426.46 307.81 430.57 308.14 435.49 C 307.86 433.06 307.67 430.61 307.38 428.18 C 307.09 428.15 306.51 428.09 306.22 428.06 C 305.62 429.31 305.28 430.66 304.93 432.00 C 304.06 435.19 300.06 435.07 298.16 437.24 C 291.06 448.29 291.40 461.87 287.63 474.06 C 286.46 478.54 283.17 482.43 278.90 484.22 C 273.99 485.23 268.41 485.09 264.03 482.43 C 265.71 481.95 267.39 481.50 269.07 481.01 C 276.05 479.28 282.02 473.80 284.37 467.02 C 286.22 461.19 287.51 455.19 289.73 449.48 C 292.77 440.99 298.76 434.06 304.76 427.51 C 305.33 426.90 306.00 426.45 306.79 426.16 Z" fill="#c5c6c6" opacity="1.00" stroke="#c5c6c6" stroke-width="0.25"/>
<path d="M 306.22 428.06 C 306.51 428.09 307.09 428.15 307.38 428.18 C 307.67 430.61 307.86 433.06 308.14 435.49 C 308.47 450.48 313.70 465.00 312.53 480.09 C 310.94 468.82 308.75 457.64 306.11 446.56 C 305.04 441.81 303.76 436.87 304.93 432.00 C 305.28 430.66 305.62 429.31 306.22 428.06 Z" fill="#000000" opacity="1.00" stroke="#000000" stroke-width="0.25"/>
<path d="M 221.31 428.80 C 230.48 437.64 239.07 448.16 241.81 460.92 C 242.77 464.62 243.42 468.45 245.14 471.90 C 247.66 477.02 253.39 480.36 259.07 480.17 C 253.35 482.33 245.90 482.25 241.37 477.62 C 237.13 472.77 236.71 466.07 235.92 459.97 C 235.34 453.77 233.68 447.33 229.42 442.59 C 227.76 440.50 225.07 439.75 223.13 438.02 C 222.24 435.01 221.54 431.93 221.31 428.80 Z" fill="#c7c7c7" opacity="1.00" stroke="#c7c7c7" stroke-width="0.25"/>
</svg>